<?xml version="1.0" encoding="UTF-8" standalone="no"?>
<!-- Created with Inkscape (http://www.inkscape.org/) -->

<svg
   width="512"
   height="512"
   viewBox="0 0 135.46666 135.46667"
   version="1.1"
   id="svg1"
   inkscape:version="1.4 (e7c3feb100, 2024-10-09)"
   sodipodi:docname="Logo.svg"
   xml:space="preserve"
   inkscape:export-filename="Logo.png"
   inkscape:export-xdpi="96"
   inkscape:export-ydpi="96"
   xmlns:inkscape="http://www.inkscape.org/namespaces/inkscape"
   xmlns:sodipodi="http://sodipodi.sourceforge.net/DTD/sodipodi-0.dtd"
   xmlns:xlink="http://www.w3.org/1999/xlink"
   xmlns="http://www.w3.org/2000/svg"
   xmlns:svg="http://www.w3.org/2000/svg"><sodipodi:namedview
     id="namedview1"
     pagecolor="#ffffff"
     bordercolor="#000000"
     borderopacity="0.25"
     inkscape:showpageshadow="2"
     inkscape:pageopacity="0.0"
     inkscape:pagecheckerboard="0"
     inkscape:deskcolor="#d1d1d1"
     inkscape:document-units="px"
     inkscape:zoom="1.1048543"
     inkscape:cx="157.03427"
     inkscape:cy="208.17224"
     inkscape:window-width="1920"
     inkscape:window-height="1011"
     inkscape:window-x="0"
     inkscape:window-y="0"
     inkscape:window-maximized="1"
     inkscape:current-layer="layer1"
     showguides="false" /><defs
     id="defs1"><linearGradient
       id="linearGradient71"
       inkscape:collect="always"><stop
         style="stop-color:#aaff99;stop-opacity:1;"
         offset="0"
         id="stop73" /><stop
         style="stop-color:#63ff41;stop-opacity:1;"
         offset="1"
         id="stop72" /></linearGradient><linearGradient
       id="linearGradient69"
       inkscape:collect="always"><stop
         style="stop-color:#ffff99;stop-opacity:1;"
         offset="0"
         id="stop71" /><stop
         style="stop-color:#f3ff33;stop-opacity:1;"
         offset="1"
         id="stop70" /></linearGradient><linearGradient
       id="linearGradient68"
       inkscape:collect="always"><stop
         style="stop-color:#ff9999;stop-opacity:1;"
         offset="0"
         id="stop69" /><stop
         style="stop-color:#ff4141;stop-opacity:1;"
         offset="0.69999999"
         id="stop68" /></linearGradient><linearGradient
       id="linearGradient18"
       inkscape:collect="always"><stop
         style="stop-color:#99ddff;stop-opacity:1;"
         offset="0"
         id="stop18" /><stop
         style="stop-color:#33bbff;stop-opacity:1;"
         offset="0.69999999"
         id="stop19" /></linearGradient><inkscape:path-effect
       effect="fillet_chamfer"
       id="path-effect13"
       is_visible="true"
       lpeversion="1"
       nodesatellites_param="F,0,0,1,0,1.3229166,0,1 @ F,0,0,1,0,1.3229166,0,1 @ F,0,0,1,0,1.3229166,0,1 @ F,0,0,1,0,1.3229166,0,1"
       radius="5"
       unit="px"
       method="auto"
       mode="F"
       chamfer_steps="1"
       flexible="false"
       use_knot_distance="true"
       apply_no_radius="true"
       apply_with_radius="true"
       only_selected="false"
       hide_knots="false" /><inkscape:path-effect
       effect="fillet_chamfer"
       id="path-effect12"
       is_visible="true"
       lpeversion="1"
       nodesatellites_param="F,0,0,1,0,0,0,1 @ F,0,0,1,0,0,0,1 @ F,0,0,1,0,0,0,1 @ F,0,0,1,0,0,0,1"
       radius="0"
       unit="px"
       method="auto"
       mode="F"
       chamfer_steps="1"
       flexible="false"
       use_knot_distance="true"
       apply_no_radius="true"
       apply_with_radius="true"
       only_selected="false"
       hide_knots="false" /><inkscape:path-effect
       effect="fillet_chamfer"
       id="path-effect9"
       is_visible="true"
       lpeversion="1"
       nodesatellites_param="F,0,0,1,0,0,0,1 @ F,0,0,1,0,0,0,1 @ F,0,0,1,0,0,0,1 @ F,0,0,1,0,0,0,1 @ F,0,0,1,0,0,0,1"
       radius="0"
       unit="px"
       method="auto"
       mode="F"
       chamfer_steps="1"
       flexible="false"
       use_knot_distance="true"
       apply_no_radius="true"
       apply_with_radius="true"
       only_selected="false"
       hide_knots="false" /><inkscape:path-effect
       effect="fillet_chamfer"
       id="path-effect8"
       is_visible="true"
       lpeversion="1"
       nodesatellites_param="F,0,0,1,0,0,0,1 @ F,0,0,1,0,0,0,1 @ F,0,0,1,0,0,0,1 @ F,0,0,1,0,0,0,1 @ F,0,0,1,0,0,0,1"
       radius="0"
       unit="px"
       method="auto"
       mode="F"
       chamfer_steps="1"
       flexible="false"
       use_knot_distance="true"
       apply_no_radius="true"
       apply_with_radius="true"
       only_selected="false"
       hide_knots="false" /><inkscape:path-effect
       effect="fillet_chamfer"
       id="path-effect7"
       is_visible="true"
       lpeversion="1"
       nodesatellites_param="F,0,0,1,0,0,0,1 @ F,0,0,1,0,0,0,1 @ F,0,0,1,0,0,0,1 @ F,0,0,1,0,0,0,1 @ F,0,0,1,0,0,0,1"
       radius="0"
       unit="px"
       method="auto"
       mode="F"
       chamfer_steps="1"
       flexible="false"
       use_knot_distance="true"
       apply_no_radius="true"
       apply_with_radius="true"
       only_selected="false"
       hide_knots="false" /><linearGradient
       id="linearGradient4"
       inkscape:collect="always"><stop
         style="stop-color:#b8148d;stop-opacity:1;"
         offset="0"
         id="stop4" /><stop
         style="stop-color:#e82eb7;stop-opacity:1;"
         offset="0.64598018"
         id="stop5" /></linearGradient><inkscape:path-effect
       effect="fillet_chamfer"
       id="path-effect4"
       is_visible="true"
       lpeversion="1"
       nodesatellites_param="F,0,0,1,0,22.507852,0,1 @ F,0,0,1,0,21.572408,0,1 @ F,0,0,1,0,22.320763,0,1 @ F,0,0,1,0,22.882029,0,1"
       radius="0"
       unit="px"
       method="auto"
       mode="F"
       chamfer_steps="1"
       flexible="false"
       use_knot_distance="true"
       apply_no_radius="true"
       apply_with_radius="true"
       only_selected="false"
       hide_knots="false" /><inkscape:path-effect
       effect="fillet_chamfer"
       id="path-effect2"
       is_visible="true"
       lpeversion="1"
       nodesatellites_param="F,0,0,1,0,22.507852,0,1 @ F,0,0,1,0,21.572408,0,1 @ F,0,0,1,0,22.320763,0,1 @ F,0,0,1,0,22.882029,0,1"
       radius="0"
       unit="px"
       method="auto"
       mode="F"
       chamfer_steps="1"
       flexible="false"
       use_knot_distance="true"
       apply_no_radius="true"
       apply_with_radius="true"
       only_selected="false"
       hide_knots="false" /><inkscape:path-effect
       effect="fillet_chamfer"
       id="path-effect1"
       is_visible="true"
       lpeversion="1"
       nodesatellites_param="F,0,0,1,0,0,0,1 @ F,0,0,1,0,0,0,1 @ F,0,0,1,0,0,0,1 @ F,0,0,1,0,0,0,1"
       radius="0"
       unit="px"
       method="auto"
       mode="F"
       chamfer_steps="1"
       flexible="false"
       use_knot_distance="true"
       apply_no_radius="true"
       apply_with_radius="true"
       only_selected="false"
       hide_knots="false" /><linearGradient
       inkscape:collect="always"
       xlink:href="#linearGradient4"
       id="linearGradient5"
       x1="113.39211"
       y1="90.002602"
       x2="22.074606"
       y2="45.464085"
       gradientUnits="userSpaceOnUse" /><radialGradient
       inkscape:collect="always"
       xlink:href="#linearGradient18"
       id="radialGradient19"
       cx="41.010414"
       cy="39.290627"
       fx="41.010414"
       fy="39.290627"
       r="10.583333"
       gradientUnits="userSpaceOnUse"
       gradientTransform="matrix(1.3332031,0,0,1.3333333,-22.47791,-22.577778)" /><radialGradient
       inkscape:collect="always"
       xlink:href="#linearGradient68"
       id="radialGradient69"
       cx="59.531249"
       cy="30.1625"
       fx="59.531249"
       fy="30.1625"
       r="2.6458328"
       gradientUnits="userSpaceOnUse"
       gradientTransform="matrix(1.3332031,0,0,1.3333333,-22.47791,-22.577778)" /><radialGradient
       inkscape:collect="always"
       xlink:href="#linearGradient69"
       id="radialGradient71"
       cx="68.156666"
       cy="30.1625"
       fx="68.156666"
       fy="30.1625"
       r="2.6458328"
       gradientUnits="userSpaceOnUse"
       gradientTransform="matrix(1.3332031,0,0,1.3333333,-22.47791,-22.577778)" /><radialGradient
       inkscape:collect="always"
       xlink:href="#linearGradient71"
       id="radialGradient73"
       cx="76.64979"
       cy="30.1625"
       fx="76.64979"
       fy="30.1625"
       r="2.6458328"
       gradientUnits="userSpaceOnUse"
       gradientTransform="matrix(1.3332031,0,0,1.3333333,-22.47791,-22.577778)" /></defs><g
     inkscape:label="Layer 1"
     inkscape:groupmode="layer"
     id="layer1"><g
       id="g12"
       inkscape:label="Background"
       style="display:inline;opacity:1"
       transform="matrix(1.3332031,0,0,1.3333333,-22.477911,-22.577779)"><path
         style="display:inline;opacity:1;fill:url(#linearGradient5);fill-opacity:1;fill-rule:nonzero;stroke-width:1.08405"
         id="rect1"
         width="101.6"
         height="101.6"
         x="16.933334"
         y="16.933334"
         sodipodi:type="rect"
         inkscape:path-effect="#path-effect2"
         d="M 39.441186,16.933334 H 96.960925 A 21.572408,21.572408 45 0 1 118.53333,38.505742 V 96.21257 A 22.320763,22.320763 135 0 1 96.21257,118.53333 H 39.815363 A 22.882029,22.882029 45 0 1 16.933334,95.651304 V 39.441186 A 22.507852,22.507852 135 0 1 39.441186,16.933334 Z"
         transform="translate(-0.06614583)" /><path
         style="display:inline;opacity:1;fill:#dd19a9;fill-opacity:1;stroke-width:1.08405"
         id="path3"
         width="101.6"
         height="101.6"
         x="16.933334"
         y="16.933334"
         sodipodi:type="rect"
         d="M 39.441186,16.933334 H 96.960925 A 21.572408,21.572408 45 0 1 118.53333,38.505742 V 96.21257 A 22.320763,22.320763 135 0 1 96.21257,118.53333 H 39.815363 A 22.882029,22.882029 45 0 1 16.933334,95.651304 V 39.441186 A 22.507852,22.507852 135 0 1 39.441186,16.933334 Z"
         transform="matrix(0.95182291,0,0,0.95182291,3.461632,3.461632)"
         inkscape:path-effect="#path-effect4" /><path
         style="opacity:1;fill:none;fill-opacity:1;stroke:#000000;stroke-width:3.6;stroke-dasharray:none;stroke-opacity:1"
         d="M 16.868,66.029288 46.8,65.9 c 0,0 8.063751,0.142304 19.850337,-12.439409 C 78.70557,40.592109 86.413162,41.874981 92.4,41.875 l 26.07,8.3e-5"
         id="path5"
         sodipodi:nodetypes="ccssc"
         inkscape:original-d="M 16.868,66.029288 46.8,65.9 c 0,0 8.063751,0.142304 19.850337,-12.439409 C 78.70557,40.592109 86.413162,41.874981 92.4,41.875 l 26.07,8.3e-5"
         inkscape:path-effect="#path-effect9" /><path
         style="fill:#b8148c"
         d="m 87.480469,36.818619 c -1.855359,0.153525 -3.944803,0.87275 -6.165269,1.556511 -4.440933,1.367521 -10.126179,3.9016 -16.267449,10.457161 -5.786343,6.176692 -10.068797,9.697615 -13.375129,11.154167 -3.306332,1.456552 -4.935547,1.386719 -4.935547,1.386719 h -0.01563 L 19.502043,61.502083 16.868,64.207161 46.688242,64.078255 c 0,0 2.402029,5.37e-4 6.074219,-1.617188 3.67219,-1.617724 8.2577,-5.374146 14.257943,-11.779167 5.913962,-6.31292 11.168284,-8.514637 15.091667,-9.722786 C 86.035452,39.750965 89.310357,40.05301 92.400387,40.053 H 118.47 l -2.32,-3.234381 H 92.400391 c -1.448405,5e-6 -3.064563,-0.153525 -4.919922,0 z"
         id="path6"
         sodipodi:nodetypes="zssscccccsssccccz"
         inkscape:label="path6" /><path
         style="fill:#e830b7"
         d="m 92.400391,43.697136 c -2.896816,-9e-6 -6.557114,-0.340183 -10.998047,1.027343 -4.440933,1.367527 -9.067845,4.959935 -15.209115,11.515496 -5.786343,6.176692 -11.127131,8.639281 -14.433463,10.095833 -3.306332,1.456551 -4.935547,1.386718 -4.935547,1.386718 h -0.01563 L 16.868,67.851433 l 2.732907,2.705078 27.17448,-0.128907 c 0,0 2.402028,5.38e-4 6.074218,-1.617187 3.67219,-1.617725 9.316034,-4.315812 15.316277,-10.720833 5.913963,-6.312921 10.109952,-9.571014 14.033333,-10.779167 3.923381,-1.208153 7.111149,-0.908213 10.201172,-0.908203 H 116.3 l 2.17,-2.705078 z"
         id="path7"
         sodipodi:nodetypes="cssscccccssscccc" /></g><path
       style="opacity:1;fill:#fdd300;fill-opacity:1;fill-rule:nonzero;stroke:#7a1f1f;stroke-width:0.666634;stroke-linecap:round;stroke-linejoin:round;stroke-dasharray:none;stroke-opacity:1;paint-order:normal"
       d="m 14.118506,87.48884 11.009621,9.905563 -11.009621,9.772237 z"
       id="path12"
       sodipodi:nodetypes="cccc" /><path
       id="rect12"
       style="color:#000000;font-style:normal;font-variant:normal;font-weight:normal;font-stretch:normal;font-size:medium;line-height:normal;font-family:sans-serif;font-variant-ligatures:normal;font-variant-position:normal;font-variant-caps:normal;font-variant-numeric:normal;font-variant-alternates:normal;font-variant-east-asian:normal;font-feature-settings:normal;font-variation-settings:normal;text-indent:0;text-align:start;text-decoration-line:none;text-decoration-style:solid;text-decoration-color:#000000;letter-spacing:normal;word-spacing:normal;text-transform:none;writing-mode:lr-tb;direction:ltr;text-orientation:mixed;dominant-baseline:auto;baseline-shift:baseline;text-anchor:start;white-space:normal;shape-padding:0;shape-margin:0;inline-size:0;clip-rule:nonzero;display:inline;overflow:visible;visibility:visible;isolation:auto;mix-blend-mode:normal;color-interpolation:sRGB;color-interpolation-filters:linearRGB;solid-color:#000000;solid-opacity:1;vector-effect:none;fill:#b8148c;fill-opacity:1;fill-rule:nonzero;stroke:none;stroke-linecap:butt;stroke-linejoin:round;stroke-miterlimit:4;stroke-dasharray:none;stroke-dashoffset:0;stroke-opacity:1;-inkscape-stroke:none;color-rendering:auto;image-rendering:auto;shape-rendering:auto;text-rendering:auto;enable-background:accumulate;stop-color:#000000;stop-opacity:1"
       d="m 55.56248,105.79865 h 24.341705 a 1.3229166,1.3229166 45 0 1 1.322917,1.32292 v 0.0202 a 1.3229166,1.3229166 135 0 1 -1.322917,1.32292 l -24.341705,0 a 1.3229166,1.3229166 45 0 1 -1.322917,-1.32292 v -0.0202 a 1.3229166,1.3229166 135 0 1 1.322917,-1.32292 z"
       sodipodi:nodetypes="ccccc"
       inkscape:path-effect="#path-effect13"
       inkscape:original-d="m 54.239563,105.79865 h 26.987539 v 2.66602 H 54.239563 Z"
       transform="matrix(1.3332031,0,0,1.3333333,-22.477911,-22.577779)" /><path
       id="rect13"
       style="opacity:1;fill:#ffffff;fill-opacity:1;stroke-width:2.82974;stroke-linecap:round;stroke-linejoin:round"
       d="m 17.586136,16.010265 a 10.331654,11.302222 2.4371707e-5 0 0 -2.673958,5.066724 10.331654,11.302222 2.4371707e-5 0 0 2.673958,10.917031 L 32.197301,47.977776 46.808467,31.99402 a 11.302222,10.331654 89.999975 0 0 2.673956,-10.917031 11.302222,10.331654 89.999975 0 0 -7.305581,-7.991876 11.302222,10.331654 89.999975 0 0 -9.979541,2.925152 10.331654,11.302222 2.4371707e-5 0 0 -9.979541,-2.925152 10.331654,11.302222 2.4371707e-5 0 0 -4.631624,2.925152 z" /><path
       id="path14"
       style="opacity:1;fill:url(#radialGradient19);fill-opacity:1;stroke-width:2.26382;stroke-linecap:round;stroke-linejoin:round"
       d="m 20.508372,18.346823 a 8.2653233,9.041778 2.437168e-5 0 0 -2.139169,4.05338 8.2653233,9.041778 2.437168e-5 0 0 2.139169,8.733624 l 11.68893,12.787005 11.688933,-12.787005 a 9.041778,8.2653233 89.999976 0 0 2.139165,-8.733624 9.041778,8.2653233 89.999976 0 0 -5.844466,-6.393502 9.041778,8.2653233 89.999976 0 0 -7.983632,2.340122 8.2653233,9.041778 2.437168e-5 0 0 -7.983633,-2.340122 8.2653233,9.041778 2.437168e-5 0 0 -3.705297,2.340122 z" /><path
       id="path16"
       style="opacity:1;fill:url(#radialGradient69);fill-opacity:1;stroke-width:0.565953;stroke-linecap:round;stroke-linejoin:round"
       d="m 53.967102,14.773163 a 2.0663308,2.260444 2.2156144e-5 0 0 -0.534794,1.013346 2.0663308,2.260444 2.2156144e-5 0 0 0.534794,2.183404 l 2.92223,3.196752 2.922235,-3.196752 a 2.0663308,2.260444 0 0 0 0.53479,-2.183404 2.0663308,2.260444 0 0 0 -1.461117,-1.598376 2.0663308,2.260444 0 0 0 -1.995908,0.58503 2.0663308,2.260444 2.2156144e-5 0 0 -1.995908,-0.58503 2.0663308,2.260444 2.2156144e-5 0 0 -0.926322,0.58503 z" /><path
       id="path17"
       style="opacity:1;fill:url(#radialGradient71);fill-opacity:1;stroke-width:0.565953;stroke-linecap:round;stroke-linejoin:round"
       d="m 65.466534,14.773163 a 2.0663308,2.260444 2.2156144e-5 0 0 -0.534793,1.013346 2.0663308,2.260444 2.2156144e-5 0 0 0.534793,2.183404 l 2.922231,3.196752 2.922234,-3.196752 a 2.0663308,2.260444 0 0 0 0.53479,-2.183404 2.0663308,2.260444 0 0 0 -1.461116,-1.598376 2.0663308,2.260444 0 0 0 -1.995908,0.58503 2.0663308,2.260444 2.2156144e-5 0 0 -1.995908,-0.58503 2.0663308,2.260444 2.2156144e-5 0 0 -0.926323,0.58503 z" /><path
       id="path18"
       style="opacity:1;fill:url(#radialGradient73);fill-opacity:1;stroke-width:0.565953;stroke-linecap:round;stroke-linejoin:round"
       d="m 76.789592,14.773163 a 2.0663308,2.260444 2.2156144e-5 0 0 -0.534792,1.013346 2.0663308,2.260444 2.2156144e-5 0 0 0.534792,2.183404 l 2.922231,3.196752 2.922234,-3.196752 a 2.0663308,2.260444 0 0 0 0.534792,-2.183404 2.0663308,2.260444 0 0 0 -1.461117,-1.598376 2.0663308,2.260444 0 0 0 -1.995909,0.58503 2.0663308,2.260444 2.2156144e-5 0 0 -1.995907,-0.58503 2.0663308,2.260444 2.2156144e-5 0 0 -0.926324,0.58503 z" /></g></svg>
